<?xml version="1.0" encoding="UTF-8" standalone="no"?>
<!-- Created with Inkscape (http://www.inkscape.org/) -->

<svg
   width="114.23083mm"
   height="108.12109mm"
   viewBox="0 0 114.23087 108.12109"
   version="1.1"
   id="svg1"
   sodipodi:docname="juwan logo pini.svg"
   inkscape:version="1.1.2 (0a00cf5339, 2022-02-04)"
   xmlns:inkscape="http://www.inkscape.org/namespaces/inkscape"
   xmlns:sodipodi="http://sodipodi.sourceforge.net/DTD/sodipodi-0.dtd"
   xmlns="http://www.w3.org/2000/svg"
   xmlns:svg="http://www.w3.org/2000/svg">
  <sodipodi:namedview
     id="namedview1"
     pagecolor="#505050"
     bordercolor="#eeeeee"
     borderopacity="1"
     inkscape:showpageshadow="0"
     inkscape:pageopacity="0"
     inkscape:pagecheckerboard="0"
     inkscape:deskcolor="#505050"
     inkscape:document-units="mm"
     showguides="false"
     inkscape:zoom="1"
     inkscape:cx="-265"
     inkscape:cy="164"
     inkscape:window-width="1920"
     inkscape:window-height="1004"
     inkscape:window-x="0"
     inkscape:window-y="0"
     inkscape:window-maximized="1"
     inkscape:current-layer="svg1"
     inkscape:pageshadow="2"
     showgrid="false"
     fit-margin-top="5"
     fit-margin-left="5"
     fit-margin-right="5"
     fit-margin-bottom="5">
    <sodipodi:guide
       position="41.200644,28.202874"
       orientation="1,0"
       id="guide1"
       inkscape:locked="false" />
    <sodipodi:guide
       position="56.655867,27.725354"
       orientation="0,-1"
       id="guide2"
       inkscape:locked="false" />
    <sodipodi:guide
       position="145.02405,18.073762"
       orientation="1,0"
       id="guide3"
       inkscape:locked="false" />
    <sodipodi:guide
       position="92.931466,-62.235639"
       orientation="0,-1"
       id="guide4"
       inkscape:locked="false" />
  </sodipodi:namedview>
  <defs
     id="defs1" />
  <g
     inkscape:label="Layer 1"
     inkscape:groupmode="layer"
     id="layer1"
     transform="translate(-1.486329,1.4176235)" />
  <g
     inkscape:label="middle"
     inkscape:groupmode="layer"
     id="layer1-2"
     transform="translate(-152.50304,19.280602)">
    <rect
       style="font-variation-settings:normal;opacity:1;fill:#000000;fill-opacity:1;fill-rule:evenodd;stroke:#4eccf3;stroke-width:10.8247;stroke-linecap:round;stroke-linejoin:round;stroke-miterlimit:4;stroke-dasharray:none;stroke-dashoffset:0;stroke-opacity:1;stop-color:#000000;stop-opacity:1"
       id="rect4-5"
       width="3.9884315"
       height="79.595009"
       x="162.91539"
       y="-1.1668642" />
    <rect
       style="font-variation-settings:normal;fill:#000000;fill-opacity:1;fill-rule:evenodd;stroke:#4eccf3;stroke-width:10.5522;stroke-linecap:round;stroke-linejoin:round;stroke-miterlimit:4;stroke-dasharray:none;stroke-dashoffset:0;stroke-opacity:1;stop-color:#000000"
       id="rect4-6-7"
       width="3.5020409"
       height="86.142448"
       x="75.053238"
       y="-253.16972"
       transform="rotate(90)" />
    <rect
       style="font-variation-settings:normal;fill:#000000;fill-opacity:1;fill-rule:evenodd;stroke:#4eccf3;stroke-width:10.8247;stroke-linecap:round;stroke-linejoin:round;stroke-miterlimit:4;stroke-dasharray:none;stroke-dashoffset:0;stroke-opacity:1;stop-color:#000000"
       id="rect4-3-7"
       width="3.9884717"
       height="79.59359"
       x="252.33305"
       y="-1.1692216" />
    <rect
       style="font-variation-settings:normal;fill:none;fill-opacity:1;fill-rule:evenodd;stroke:#ffbe2d;stroke-width:12.4848;stroke-linecap:round;stroke-linejoin:round;stroke-miterlimit:4;stroke-dasharray:none;stroke-dashoffset:0;stroke-opacity:1;paint-order:normal;stop-color:#000000"
       id="rect5-2"
       width="51.075203"
       height="65.855209"
       x="184.40393"
       y="-8.0382023" />
    <path
       d="m 190.57007,0.77549707 a 2.725063,2.7228214 0 0 1 0.0844,-0.64082 2.725063,2.7228214 0 0 1 0.27218,-0.656694 2.725063,2.7228214 0 0 1 0.43324,-0.56410897 2.725063,2.7228214 0 0 1 0.56424,-0.432727 2.725063,2.7228214 0 0 1 0.65726,-0.271804 2.725063,2.7228214 0 0 1 0.65173,-0.08575 h -2.66304 z"
       style="fill:#ffbe2d;fill-opacity:1;fill-rule:evenodd;stroke:#ffbe2d;stroke-width:0.117555;stroke-dasharray:none;stroke-opacity:1;stop-color:#000000"
       id="path9-3-9" />
    <path
       d="m 226.67583,-1.8579909 a 2.7196034,2.7313743 0 0 1 0.64007,0.08459 2.7196034,2.7313743 0 0 1 0.65591,0.27281 2.7196034,2.7313743 0 0 1 0.56344,0.434241 2.7196034,2.7313743 0 0 1 0.43222,0.56554997 2.7196034,2.7313743 0 0 1 0.27148,0.658781 2.7196034,2.7313743 0 0 1 0.0856,0.65324 V -1.8579889 Z"
       style="fill:#ffbe2d;fill-opacity:1;fill-rule:evenodd;stroke:#ffbe2d;stroke-width:0.117621;stroke-dasharray:none;stroke-opacity:1;stop-color:#000000"
       id="path9-3-3-72" />
    <path
       d="m 190.53921,49.052387 a 2.7400197,2.7228214 0 0 0 0.0849,0.64082 2.7400197,2.7228214 0 0 0 0.27367,0.65669 2.7400197,2.7228214 0 0 0 0.43562,0.56411 2.7400197,2.7228214 0 0 0 0.56734,0.43273 2.7400197,2.7228214 0 0 0 0.66087,0.2718 2.7400197,2.7228214 0 0 0 0.6553,0.0857 h -2.67765 z"
       style="fill:#ffbe2d;fill-opacity:1;fill-rule:evenodd;stroke:#ffbe2d;stroke-width:0.117877;stroke-dasharray:none;stroke-opacity:1;stop-color:#000000"
       id="path9-3-2-9" />
    <path
       d="m 226.67806,51.671947 a 2.7228214,2.7292934 0 0 0 0.64082,-0.0845 2.7228214,2.7292934 0 0 0 0.65669,-0.2726 2.7228214,2.7292934 0 0 0 0.56411,-0.43391 2.7228214,2.7292934 0 0 0 0.43273,-0.56512 2.7228214,2.7292934 0 0 0 0.2718,-0.65828 2.7228214,2.7292934 0 0 0 0.0857,-0.65274 v 2.66717 z"
       style="fill:#ffbe2d;fill-opacity:1;fill-rule:evenodd;stroke:#ffbe2d;stroke-width:0.117646;stroke-dasharray:none;stroke-opacity:1;stop-color:#000000"
       id="path9-3-3-7-7" />
    <path
       d="m 172.23116,67.230577 a 2.7400197,2.7228214 0 0 0 0.0849,0.64082 2.7400197,2.7228214 0 0 0 0.27367,0.65669 2.7400197,2.7228214 0 0 0 0.43562,0.56411 2.7400197,2.7228214 0 0 0 0.56734,0.43273 2.7400197,2.7228214 0 0 0 0.66086,0.2718 2.7400197,2.7228214 0 0 0 0.65531,0.0857 h -2.67766 z"
       style="fill:#4eccf3;fill-opacity:1;fill-rule:evenodd;stroke:#4eccf3;stroke-width:0.117877;stroke-dasharray:none;stroke-opacity:1;stop-color:#000000"
       id="path9-3-2-8-4" />
    <path
       d="m 244.33538,69.853047 a 2.7228214,2.7292934 0 0 0 0.64082,-0.0845 2.7228214,2.7292934 0 0 0 0.65669,-0.2726 2.7228214,2.7292934 0 0 0 0.56411,-0.43391 2.7228214,2.7292934 0 0 0 0.43273,-0.56512 2.7228214,2.7292934 0 0 0 0.2718,-0.65828 2.7228214,2.7292934 0 0 0 0.0857,-0.65274 v 2.66717 z"
       style="fill:#4eccf3;fill-opacity:1;fill-rule:evenodd;stroke:#4eccf3;stroke-width:0.117646;stroke-dasharray:none;stroke-opacity:1;stop-color:#000000"
       id="path9-3-3-7-8-6" />
    <path
       d="m 190.36306,4.4636631 v -0.29869 a 6.3741431,6.3829131 0 0 0 -0.0196,0.14935 6.3741431,6.3829131 0 0 0 0.0196,0.14934 z"
       style="opacity:1;fill-rule:evenodd;stroke-width:0.210899;stroke-dasharray:none;stop-color:#000000;stop-opacity:1"
       id="path8-7" />
    <path
       style="font-variation-settings:normal;opacity:1;fill:none;fill-opacity:1;stroke:#fa5151;stroke-width:9;stroke-linecap:round;stroke-linejoin:miter;stroke-miterlimit:4;stroke-dasharray:none;stroke-dashoffset:0;stroke-opacity:1;stop-color:#000000;stop-opacity:1"
       d="m 197.09278,26.975657 c 0,0 1.02838,7.85046 12.85478,7.85046 11.82638,0 13.08849,-7.85046 13.08849,-7.85046"
       id="path9-1" />
  </g>
  <g
     inkscape:label="thicker lines"
     inkscape:groupmode="layer"
     id="g21"
     transform="translate(-3.6029957,117.30512)" />
</svg>
