<svg xmlns="http://www.w3.org/2000/svg" width="100" height="100" viewBox="0 0 114.2 108.1"><path d="M162.9-1.2h4v79.6h-4z" style="font-variation-settings:normal;opacity:1;fill:#000;fill-opacity:1;fill-rule:evenodd;stroke:#4eccf3;stroke-width:10.8247;stroke-linecap:round;stroke-linejoin:round;stroke-miterlimit:4;stroke-dasharray:none;stroke-dashoffset:0;stroke-opacity:1;stop-color:#000;stop-opacity:1" transform="translate(-152.5 19.3)"/><path d="M75.1-253.2h3.5v86.1h-3.5z" style="font-variation-settings:normal;fill:#000;fill-opacity:1;fill-rule:evenodd;stroke:#4eccf3;stroke-width:10.5522;stroke-linecap:round;stroke-linejoin:round;stroke-miterlimit:4;stroke-dasharray:none;stroke-dashoffset:0;stroke-opacity:1;stop-color:#000" transform="rotate(90 -85.9 -66.6)"/><path d="M252.3-1.2h4v79.6h-4z" style="font-variation-settings:normal;fill:#000;fill-opacity:1;fill-rule:evenodd;stroke:#4eccf3;stroke-width:10.8247;stroke-linecap:round;stroke-linejoin:round;stroke-miterlimit:4;stroke-dasharray:none;stroke-dashoffset:0;stroke-opacity:1;stop-color:#000" transform="translate(-152.5 19.3)"/><path d="M184.4-8h51.1v65.9h-51.1z" style="font-variation-settings:normal;fill:none;fill-opacity:1;fill-rule:evenodd;stroke:#ffbe2d;stroke-width:12.4848;stroke-linecap:round;stroke-linejoin:round;stroke-miterlimit:4;stroke-dasharray:none;stroke-dashoffset:0;stroke-opacity:1;paint-order:normal;stop-color:#000" transform="translate(-152.5 19.3)"/><path d="M190.6.8a2.7 2.7 0 0 1 0-.7 2.7 2.7 0 0 1 .3-.6 2.7 2.7 0 0 1 .5-.6 2.7 2.7 0 0 1 .5-.4 2.7 2.7 0 0 1 .7-.3 2.7 2.7 0 0 1 .6 0h-2.6z" style="fill:#ffbe2d;fill-opacity:1;fill-rule:evenodd;stroke:#ffbe2d;stroke-width:.117555;stroke-dasharray:none;stroke-opacity:1;stop-color:#000" transform="translate(-152.5 19.3)"/><path d="M226.7-1.9a2.7 2.7 0 0 1 .6.1 2.7 2.7 0 0 1 .7.3 2.7 2.7 0 0 1 .5.4 2.7 2.7 0 0 1 .5.6 2.7 2.7 0 0 1 .2.7 2.7 2.7 0 0 1 .1.6v-2.7Z" style="fill:#ffbe2d;fill-opacity:1;fill-rule:evenodd;stroke:#ffbe2d;stroke-width:.117621;stroke-dasharray:none;stroke-opacity:1;stop-color:#000" transform="translate(-152.5 19.3)"/><path d="M190.5 49a2.7 2.7 0 0 0 .1.7 2.7 2.7 0 0 0 .3.6 2.7 2.7 0 0 0 .4.6 2.7 2.7 0 0 0 .6.4 2.7 2.7 0 0 0 .7.3 2.7 2.7 0 0 0 .6.1h-2.7z" style="fill:#ffbe2d;fill-opacity:1;fill-rule:evenodd;stroke:#ffbe2d;stroke-width:.117877;stroke-dasharray:none;stroke-opacity:1;stop-color:#000" transform="translate(-152.5 19.3)"/><path d="M226.7 51.7a2.7 2.7 0 0 0 .6-.1 2.7 2.7 0 0 0 .7-.3 2.7 2.7 0 0 0 .5-.4 2.7 2.7 0 0 0 .5-.6 2.7 2.7 0 0 0 .2-.6 2.7 2.7 0 0 0 .1-.7v2.7z" style="fill:#ffbe2d;fill-opacity:1;fill-rule:evenodd;stroke:#ffbe2d;stroke-width:.117646;stroke-dasharray:none;stroke-opacity:1;stop-color:#000" transform="translate(-152.5 19.3)"/><path d="M172.2 67.2a2.7 2.7 0 0 0 .1.7 2.7 2.7 0 0 0 .3.6 2.7 2.7 0 0 0 .4.6 2.7 2.7 0 0 0 .6.4 2.7 2.7 0 0 0 .7.3 2.7 2.7 0 0 0 .6 0h-2.7z" style="fill:#4eccf3;fill-opacity:1;fill-rule:evenodd;stroke:#4eccf3;stroke-width:.117877;stroke-dasharray:none;stroke-opacity:1;stop-color:#000" transform="translate(-152.5 19.3)"/><path d="M244.3 69.9a2.7 2.7 0 0 0 .7-.1 2.7 2.7 0 0 0 .6-.3 2.7 2.7 0 0 0 .6-.4 2.7 2.7 0 0 0 .4-.6 2.7 2.7 0 0 0 .3-.7 2.7 2.7 0 0 0 0-.6v2.7z" style="fill:#4eccf3;fill-opacity:1;fill-rule:evenodd;stroke:#4eccf3;stroke-width:.117646;stroke-dasharray:none;stroke-opacity:1;stop-color:#000" transform="translate(-152.5 19.3)"/><path d="M190.4 4.5v-.3a6.4 6.4 0 0 0 0 .1 6.4 6.4 0 0 0 0 .2z" style="opacity:1;fill-rule:evenodd;stroke-width:.210899;stroke-dasharray:none;stop-color:#000;stop-opacity:1" transform="translate(-152.5 19.3)"/><path d="M197 27s1.1 7.8 13 7.8c11.8 0 13-7.8 13-7.8" style="font-variation-settings:normal;opacity:1;fill:none;fill-opacity:1;stroke:#fa5151;stroke-width:9;stroke-linecap:round;stroke-linejoin:miter;stroke-miterlimit:4;stroke-dasharray:none;stroke-dashoffset:0;stroke-opacity:1;stop-color:#000;stop-opacity:1" transform="translate(-152.5 19.3)"/></svg>